<svg width="48" height="48" viewBox="0 0 48 48" fill="none" xmlns="http://www.w3.org/2000/svg">
<rect x="0.5" y="0.5" width="47" height="47" rx="0.5" fill="white" stroke="#E5EAFF"/>
<path fill-rule="evenodd" clip-rule="evenodd" d="M24.4546 11.1626C25.4371 9.9921 27.1145 9.09563 28.5523 9C28.7967 10.6011 28.1281 12.1617 27.2463 13.2629C26.3309 14.4199 24.7637 15.3228 23.2324 15.3228H23.1174C22.8298 13.7968 23.5631 12.2233 24.4546 11.1626ZM26.0429 15.7927C26.8639 15.4875 27.7661 15.1521 29.0828 15.1521L29.0768 15.1544C30.9023 15.1544 32.8385 16.133 34.2164 17.8227C29.7023 20.2522 30.4356 26.5891 35 28.2859C34.377 29.6558 34.075 30.2636 33.2627 31.4746C32.134 33.1584 30.5458 35.2588 28.5688 35.2793H28.5329C27.7432 35.2793 27.2185 35.0432 26.6534 34.789C25.994 34.4924 25.2796 34.171 24.0254 34.171H23.9894C22.7166 34.178 21.981 34.5004 21.3052 34.7967C20.7254 35.0509 20.1896 35.2857 19.3962 35.2857H19.3603C17.3833 35.2652 15.876 33.3696 14.7473 31.6793C11.592 26.9576 11.2613 21.4151 13.2095 18.4722C14.597 16.3853 16.7818 15.1603 18.8307 15.1603C19.9279 15.1603 20.8115 15.4682 21.6523 15.7612C22.4155 16.0272 23.1436 16.2809 23.9643 16.2809C24.7295 16.2809 25.3579 16.0473 26.0429 15.7927Z" fill="#1F1F1F"/>
</svg>
