<svg width="54" height="53" viewBox="0 0 54 53" fill="none" xmlns="http://www.w3.org/2000/svg">
<mask id="mask0_559_8305" style="mask-type:alpha" maskUnits="userSpaceOnUse" x="0" y="0" width="54" height="53">
<rect x="0.75" width="52.5" height="52.5" fill="#D9D9D9"/>
</mask>
<g mask="url(#mask0_559_8305)">
<path d="M26.9453 43.5991C26.4232 43.5991 25.935 43.5122 25.4808 43.3383C25.0265 43.1647 24.6147 42.8991 24.2454 42.5415L21.768 40.2812C17.8305 36.7204 14.3519 33.2264 11.332 29.7993C8.31217 26.3722 6.80225 22.8055 6.80225 19.0991C6.80225 16.251 7.78607 13.8557 9.75373 11.9132C11.7214 9.97107 14.1193 9 16.9473 9C18.5814 9 20.2765 9.42839 22.0327 10.2852C23.7885 11.1419 25.4443 12.7065 27 14.979C28.5797 12.7065 30.2355 11.1419 31.9673 10.2852C33.699 9.42839 35.3912 9 37.0439 9C39.888 9 42.2913 9.97107 44.2539 11.9132C46.2164 13.8557 47.1977 16.251 47.1977 19.0991C47.1977 22.9149 45.5906 26.5636 42.3765 30.0454C39.1619 33.5272 35.8107 36.9027 32.3227 40.1719L29.6922 42.5491C29.3266 42.9042 28.9097 43.168 28.4415 43.3405C27.9738 43.5129 27.475 43.5991 26.9453 43.5991ZM25.9429 17.6406C24.8247 15.5625 23.4787 13.9797 21.9047 12.8921C20.3312 11.8042 18.6877 11.2602 16.9741 11.2602C14.7239 11.2602 12.8428 11.9956 11.3309 13.4663C9.81863 14.9367 9.06248 16.8185 9.06248 19.1117C9.06248 20.7075 9.46206 22.3244 10.2612 23.9625C11.0604 25.6009 12.2057 27.3085 13.6972 29.0851C15.1891 30.8617 16.9619 32.7253 19.0156 34.6758C21.0693 36.6263 23.3419 38.7196 25.8335 40.9555C26.1616 41.2716 26.5444 41.4297 26.9819 41.4297C27.4194 41.4297 27.8022 41.2716 28.1304 40.9555C30.6216 38.6951 32.894 36.5897 34.9477 34.6391C37.0018 32.6886 38.7791 30.8292 40.2798 29.061C41.7807 27.2928 42.9323 25.5962 43.7344 23.9713C44.5364 22.3459 44.9375 20.7276 44.9375 19.1161C44.9375 16.8199 44.1874 14.9367 42.6871 13.4663C41.1872 11.9956 39.297 11.2602 37.0165 11.2602C35.295 11.2602 33.6358 11.8042 32.0389 12.8921C30.4417 13.9797 29.1144 15.5625 28.0571 17.6406C27.9721 17.8594 27.8283 18.0326 27.6256 18.1602C27.4233 18.2878 27.2227 18.3516 27.024 18.3516C26.8257 18.3516 26.6203 18.2878 26.4077 18.1602C26.1948 18.0326 26.0399 17.8594 25.9429 17.6406Z" fill="#1F1F1F"/>
</g>
</svg>
