<svg width="48" height="48" viewBox="0 0 48 48" fill="none" xmlns="http://www.w3.org/2000/svg">
<rect x="0.5" y="0.5" width="47" height="47" rx="0.5" fill="white" stroke="#E5EAFF"/>
<path d="M23.7549 21.2275V26.0685H30.6196C30.3182 27.6253 29.4136 28.9435 28.0569 29.8299L32.1966 32.9776C34.6085 30.7959 36 27.5913 36 23.7845C36 22.8981 35.9189 22.0458 35.7681 21.2277L23.7549 21.2275Z" fill="#4285F4"/>
<path d="M16.6066 25.8794L15.673 26.5798L12.3681 29.1025C14.467 33.182 18.7687 36.0002 23.7548 36.0002C27.1987 36.0002 30.086 34.8866 32.1965 32.9775L28.0568 29.8298C26.9204 30.5798 25.4709 31.0344 23.7548 31.0344C20.4384 31.0344 17.6208 28.8412 16.6119 25.8866L16.6066 25.8794Z" fill="#34A853"/>
<path d="M12.3682 17.8975C11.4986 19.5792 11 21.477 11 23.4997C11 25.5224 11.4986 27.4201 12.3682 29.1019C12.3682 29.1132 16.6123 25.8746 16.6123 25.8746C16.3572 25.1246 16.2064 24.3292 16.2064 23.4995C16.2064 22.6699 16.3572 21.8745 16.6123 21.1245L12.3682 17.8975Z" fill="#FBBC05"/>
<path d="M23.7551 15.9773C25.6336 15.9773 27.3034 16.6136 28.6369 17.8409L32.2895 14.2614C30.0747 12.2387 27.1991 11 23.7551 11C18.7689 11 14.467 13.8068 12.3681 17.8977L16.6121 21.125C17.6209 18.1704 20.4387 15.9773 23.7551 15.9773Z" fill="#EA4335"/>
</svg>
