<svg width="54" height="53" viewBox="0 0 54 53" fill="none" xmlns="http://www.w3.org/2000/svg">
<mask id="mask0_279_2789" style="mask-type:alpha" maskUnits="userSpaceOnUse" x="0" y="0" width="54" height="53">
<rect x="0.875" y="0.5" width="52.25" height="52.25" fill="#D9D9D9"/>
</mask>
<g mask="url(#mask0_279_2789)">
<path d="M15.3161 46.624C14.2069 46.624 13.2644 46.2361 12.4886 45.4604C11.7128 44.6846 11.325 43.7421 11.325 42.6329V19.3381C11.325 18.2289 11.7128 17.2864 12.4886 16.5106C13.2644 15.7348 14.2069 15.3469 15.3161 15.3469H19.4346V13.823C19.4346 11.7185 20.1741 9.95866 21.653 8.54355C23.1324 7.12845 24.9379 6.4209 27.0696 6.4209C29.2013 6.4209 31.0138 7.12845 32.5069 8.54355C34 9.95866 34.7466 11.7185 34.7466 13.823V15.3469H38.8286C39.9378 15.3469 40.8803 15.7348 41.6561 16.5106C42.4318 17.2864 42.8197 18.2289 42.8197 19.3381V42.6329C42.8197 43.7421 42.4318 44.6846 41.6561 45.4604C40.8803 46.2361 39.9378 46.624 38.8286 46.624H15.3161ZM15.3161 44.3745H38.8286C39.264 44.3745 39.6631 44.1931 40.026 43.8303C40.3888 43.4674 40.5703 43.0683 40.5703 42.6329V19.3381C40.5703 18.9027 40.3888 18.5035 40.026 18.1407C39.6631 17.7778 39.264 17.5964 38.8286 17.5964H34.7466V22.9847C34.7466 23.3047 34.6321 23.5752 34.4031 23.7962C34.1742 24.0172 33.9053 24.1277 33.5965 24.1277C33.2983 24.1277 33.0405 24.0172 32.8231 23.7962C32.6058 23.5752 32.4971 23.3047 32.4971 22.9847V17.5964H21.6841V22.9847C21.6841 23.3047 21.5696 23.5752 21.3406 23.7962C21.1117 24.0172 20.8428 24.1277 20.534 24.1277C20.2358 24.1277 19.978 24.0172 19.7606 23.7962C19.5433 23.5752 19.4346 23.3047 19.4346 22.9847V17.5964H15.3161C14.8807 17.5964 14.4815 17.7778 14.1187 18.1407C13.7558 18.5035 13.5744 18.9027 13.5744 19.3381V42.6329C13.5744 43.0683 13.7558 43.4674 14.1187 43.8303C14.4815 44.1931 14.8807 44.3745 15.3161 44.3745ZM21.6841 15.3469H32.4971V13.823C32.4971 12.3473 31.9699 11.1196 30.9154 10.1399C29.8614 9.16021 28.5794 8.67037 27.0696 8.67037C25.5595 8.67037 24.2844 9.16021 23.2445 10.1399C22.2042 11.1196 21.6841 12.3473 21.6841 13.823V15.3469Z" fill="#1F1F1F"/>
</g>
</svg>
