<svg width="241" height="28" viewBox="0 0 241 28" fill="none" xmlns="http://www.w3.org/2000/svg">
<path d="M172.476 0.965088C174.366 0.965088 176.196 0.965088 178.131 0.965088C180.996 6.15061 183.878 11.3655 186.761 16.5803C186.844 16.5555 186.93 16.5307 187.013 16.5081C187.013 11.3564 187.013 6.20474 187.013 0.992153C188.953 0.992153 190.773 0.992153 192.594 0.992153C192.828 1.84701 192.905 24.9732 192.67 26.8025C190.828 26.8025 188.971 26.8025 186.986 26.8025C184.147 21.6621 181.264 16.4495 178.381 11.2346C178.296 11.2594 178.21 11.2865 178.122 11.3113C178.122 16.4608 178.122 21.6102 178.122 26.8205C176.182 26.8205 174.362 26.8205 172.542 26.8205C172.309 25.9702 172.233 2.81464 172.476 0.965088Z" fill="#1F1F1F"/>
<path d="M0.226324 13.7722C0.370679 6.56344 6.63887 0.408033 13.7236 0.518556C20.885 0.631333 27.0719 6.94238 26.9659 14.0271C26.8599 21.1907 20.5331 27.4003 13.4664 27.2785C6.27572 27.1567 0.0864793 20.8389 0.226324 13.7722ZM21.1804 13.9752C21.2346 9.96031 17.7407 6.35593 13.7213 6.27924C9.72447 6.20481 6.08175 9.7122 5.99603 13.7158C5.91032 17.7284 9.52147 21.4636 13.5251 21.502C17.4858 21.5448 21.1286 17.9608 21.1804 13.9752Z" fill="#1F1F1F"/>
<path d="M102.004 26.8296C102.004 18.1931 102.004 9.65129 102.004 1.02604C102.256 0.992208 102.484 0.935814 102.712 0.935814C105.482 0.931303 108.252 0.922282 111.019 0.944838C113.185 0.962882 115.063 1.65534 116.588 3.27934C118.717 5.54617 118.88 10.3843 115.668 12.5903C115.569 12.6579 115.481 12.7414 115.309 12.8812C115.715 13.0662 116.074 13.2286 116.428 13.3932C119.013 14.5909 120.418 16.9525 120.303 19.7539C120.15 23.4823 118.12 25.5326 115.641 26.374C114.953 26.6063 114.215 26.8048 113.498 26.8115C109.713 26.8521 105.928 26.8296 102.004 26.8296ZM107.776 22.3659C109.17 22.3659 110.469 22.4764 111.743 22.3388C113.356 22.1628 114.403 20.8997 114.439 19.375C114.475 17.7984 113.428 16.4315 111.793 16.2398C110.487 16.0864 109.147 16.2082 107.776 16.2082C107.776 18.2743 107.776 20.2547 107.776 22.3659ZM107.764 11.4399C108.576 11.4399 109.264 11.4941 109.943 11.4287C111.29 11.3001 112.404 10.249 112.63 8.97912C112.864 7.65286 112.199 6.29953 110.974 5.75819C109.95 5.30483 108.876 5.30483 107.764 5.53264C107.764 7.50174 107.764 9.40092 107.764 11.4399Z" fill="#1F1F1F"/>
<path d="M239.072 8.77383C237.154 8.77383 235.372 8.77383 233.606 8.77383C232.747 5.96116 231.603 5.12885 228.685 5.3093C227.893 5.35666 227.086 5.59124 226.341 5.88672C225.538 6.20475 225.06 6.88367 225.008 7.78138C224.954 8.70165 225.416 9.37832 226.215 9.72793C227.14 10.1339 228.11 10.4542 229.079 10.7339C230.875 11.2504 232.695 11.6858 234.488 12.2113C235.145 12.403 235.772 12.7256 236.383 13.0459C241.047 15.4931 240.817 21.9779 237.529 24.8153C235.83 26.2815 233.827 27.0145 231.664 27.3055C228.928 27.6754 226.233 27.4972 223.632 26.4326C220.233 25.0409 218.025 21.7523 218.289 18.396C220.165 18.396 222.049 18.396 223.932 18.396C223.995 18.5517 224.059 18.6599 224.081 18.775C224.557 21.1546 225.987 22.5417 228.378 22.7087C229.454 22.7831 230.559 22.6094 231.635 22.4425C232.093 22.3726 232.546 22.0861 232.934 21.8019C234.36 20.7576 234.366 18.8787 232.894 17.9133C232.161 17.4329 231.297 17.1104 230.451 16.8487C228.937 16.3818 227.37 16.0818 225.865 15.5924C224.636 15.1909 223.404 14.7195 222.274 14.0992C218.163 11.8391 218.113 6.06039 221.246 3.21388C222.978 1.6395 225.033 0.87713 227.313 0.644808C230.131 0.358352 232.844 0.70796 235.321 2.17858C237.759 3.62665 238.86 5.87093 239.072 8.77383Z" fill="#1F1F1F"/>
<path d="M40.1068 26.8184C40.1068 18.1458 40.1068 9.60625 40.1068 1.00356C40.3978 0.976489 40.6324 0.933634 40.8647 0.933634C43.3074 0.931378 45.7525 0.906567 48.1952 0.947167C55.219 1.05769 60.8963 6.87477 60.6797 14.3136C60.5015 20.4555 56.3152 25.2463 51.0057 26.4778C50.1012 26.6876 49.1606 26.8342 48.2336 26.8545C45.7502 26.9086 43.2668 26.8793 40.7812 26.8793C40.5872 26.877 40.391 26.8455 40.1068 26.8184ZM45.7886 21.5697C49.0523 21.784 51.865 21.1209 53.5995 18.2315C55.3025 15.3917 55.3228 12.3873 53.5905 9.55888C51.8334 6.68755 49.0298 6.01314 45.7886 6.33569C45.7886 11.3926 45.7886 16.4158 45.7886 21.5697Z" fill="#1F1F1F"/>
<path d="M195.244 26.8206C195.244 18.1525 195.244 9.61071 195.244 1.07343C198.909 0.895243 202.55 0.525328 206.098 1.33056C211.89 2.64781 215.781 7.77017 215.837 13.8151C215.893 19.9118 211.901 25.1064 206.041 26.5093C205.177 26.7169 204.275 26.8341 203.386 26.8522C200.903 26.9018 198.42 26.877 195.934 26.877C195.736 26.877 195.537 26.8454 195.244 26.8206ZM201.002 6.32662C201.025 7.82657 201.095 20.4058 201.077 21.5809C204.262 21.7817 207.106 21.0802 208.813 18.1029C210.458 15.2338 210.437 12.2407 208.649 9.43704C206.864 6.63789 204.092 6.02438 201.002 6.32662Z" fill="#1F1F1F"/>
<path d="M80.9211 21.7275C77.558 21.7275 74.3484 21.7275 71.0462 21.7275C70.4327 23.4101 69.8215 25.0837 69.1922 26.8137C67.1983 26.8137 65.2201 26.8137 63.0548 26.8137C66.5509 18.1862 70.0222 9.61964 73.5138 1.00342C75.1559 1.00342 76.7663 1.00342 78.449 1.00342C81.9248 9.57904 85.4051 18.1592 88.9193 26.8273C86.7945 26.8273 84.8119 26.8273 82.7796 26.8273C82.1594 25.1266 81.5504 23.453 80.9211 21.7275ZM79.1888 16.8464C78.1106 13.8014 77.0753 10.8827 75.9521 7.70692C74.892 10.9279 73.7168 13.7969 72.8011 16.8464C74.9777 16.8464 76.9896 16.8464 79.1888 16.8464Z" fill="#1F1F1F"/>
<path d="M159.509 0.992188C157.793 0.992188 156.216 0.992188 154.592 0.992188C151.096 9.60164 147.6 18.2111 144.104 26.8183C146.163 26.8183 148.209 26.8183 150.259 26.8183C150.886 25.0973 151.497 23.4237 152.111 21.7388C155.438 21.7388 158.681 21.7388 161.99 21.7388C162.624 23.4688 163.247 25.1717 163.84 26.7935C165.946 26.7935 167.913 26.7935 169.975 26.7935C166.449 18.1028 162.969 9.52044 159.509 0.992188ZM153.863 16.8465C154.793 13.797 155.945 10.9211 157.026 7.72728C158.142 10.8805 159.175 13.8015 160.253 16.8465C158.054 16.8465 156.042 16.8465 153.863 16.8465Z" fill="#1F1F1F"/>
<path d="M141.733 26.8184C139.487 23.9381 136.676 20.2412 134.511 17.4646C134.684 17.3338 134.77 17.2323 134.878 17.194C138.251 16.0008 139.947 13.531 140.251 10.0461C140.705 4.86286 136.938 0.917898 132.282 0.931431C129.35 0.940453 126.418 0.929173 123.486 0.93594C123.219 0.93594 122.951 1.00361 122.678 1.0397C122.678 9.66494 122.678 18.2067 122.678 26.8117C124.586 26.8117 126.434 26.8117 128.38 26.8117C128.38 23.8276 128.38 20.9089 128.38 17.9902C128.452 17.9654 128.522 17.9383 128.594 17.9135C130.595 20.9066 132.594 23.902 134.542 26.8184C136.942 26.8184 139.338 26.8184 141.733 26.8184ZM131.991 12.9806C130.884 13.1385 129.736 13.0099 128.452 13.0099C128.452 10.4995 128.452 8.03417 128.452 5.43352C129.7 5.42901 130.904 5.27563 132.102 5.55081C133.816 5.94328 134.851 7.43419 134.813 9.38751C134.777 11.2867 133.728 12.7325 131.991 12.9806Z" fill="#1F1F1F"/>
</svg>
